# xmcd
# 
# Track frame offsets:
#     150
#     14639
#     30222
#     44607
#     58424
#     72325
#     89252
#     103686
#     118944
#     133462
#     146819
#     161799
#     174550
#     188287
#     202738
#     218224
#     232037
#     247948
#     262489
#     278096
# 
# Disc length: 3913
# 
# Revision: 0
# Processed by: cddbd v1.5.2PL0 Copyright (c) Steve Scherf et al.
# Submitted via: fre:ac v1.0.17
# 
DISCID=360f4714
DTITLE=Bessie Smith - Mari Cantareti de Jazz si Blues 14
DYEAR=2013
DGENRE=Blues
TTITLE0=The St. Louis Blues
TTITLE1=Careless Love
TTITLE2=Cake Walkin' Blues
TTITLE3=The Yellow Dog BLues
TTITLE4=Reckless Blues
TTITLE5=Nashville Women's Blues
TTITLE6=I Ain't Got Nobody
TTITLE7=Send Me To The 'Lectric Chair
TTITLE8=Mean Old Bedbug Blues
TTITLE9=After You've Gone
TTITLE10=Back Water Blues
TTITLE11=It Won't Be You
TTITLE12=Empty Bed Blues
TTITLE13=Devil's Gonna Get You
TTITLE14=Poor Man's Blues
TTITLE15=Wasted Life Blues
TTITLE16=Keep It To Yourself
TTITLE17=Moan, You Moaners
TTITLE18=Long Old Road
TTITLE19=Safety Mama
EXTD=
EXTT0=
EXTT1=
EXTT2=
EXTT3=
EXTT4=
EXTT5=
EXTT6=
EXTT7=
EXTT8=
EXTT9=
EXTT10=
EXTT11=
EXTT12=
EXTT13=
EXTT14=
EXTT15=
EXTT16=
EXTT17=
EXTT18=
EXTT19=
PLAYORDER=
